PathFileType	4	(X/Y/Z)	s06c0103.trc
DataRate	CameraRate	NumFrames	NumMarkers	Units	OrigDataRate	OrigDataStartFrame	OrigNumFrames
200	200	4	48	mm	200	250	2000
Frame#	Time	racr			lacr			c7			jug			rlel			rdr			llel			ldr			s2			lic			ric			lasi			rasi			rpsi			lpsi			rgt			lgt			rth1			rth2			rth3			rth4			rlfc			rmfc			rsh1			rsh2			rsh3			rsh4			rlmal			rcal			rtoe			rmt5			lth1			lth2			lth4			lth3			llfc			lmfc			llmal			lcal			lmt5			lsh1			lsh2			lsh3			lsh4			ltoe			SBIKE			LBIKE			RBIKE			
		X1	Y1	Z1	X2	Y2	Z2	X3	Y3	Z3	X4	Y4	Z4	X5	Y5	Z5	X6	Y6	Z6	X7	Y7	Z7	X8	Y8	Z8	X9	Y9	Z9	X10	Y10	Z10	X11	Y11	Z11	X12	Y12	Z12	X13	Y13	Z13	X14	Y14	Z14	X15	Y15	Z15	X16	Y16	Z16	X17	Y17	Z17	X18	Y18	Z18	X19	Y19	Z19	X20	Y20	Z20	X21	Y21	Z21	X22	Y22	Z22	X23	Y23	Z23	X24	Y24	Z24	X25	Y25	Z25	X26	Y26	Z26	X27	Y27	Z27	X28	Y28	Z28	X29	Y29	Z29	X30	Y30	Z30	X31	Y31	Z31	X32	Y32	Z32	X33	Y33	Z33	X34	Y34	Z34	X35	Y35	Z35	X36	Y36	Z36	X37	Y37	Z37	X38	Y38	Z38	X39	Y39	Z39	X40	Y40	Z40	X41	Y41	Z41	X42	Y42	Z42	X43	Y43	Z43	X44	Y44	Z44	X45	Y45	Z45	X46	Y46	Z46	X47	Y47	Z47	X48	Y48	Z48	
250	1.2500	474.989849	1340.252745	-54.483758	494.662793	1342.799150	-372.358124	449.314010	1438.386938	-213.084711	497.841456	1289.300727	-209.961778	513.843205	1082.413348	44.515860	710.724138	934.614352	-38.081081	528.484250	1086.827466	-475.399614	716.219019	922.629298	-413.853444	-29.830445	1171.039094	-217.645353	137.868344	1124.867941	-385.467124	136.695204	1117.729091	-53.311723	143.202887	1061.086576	-357.507513	148.900985	1063.655053	-88.155104	6.467600	1203.813534	-184.382774	5.196605	1204.223655	-244.925569	100.129721	1073.272114	-22.411097	88.096721	1066.391246	-421.120131	191.028776	989.194806	-24.345350	270.244241	945.885244	-32.594762	316.452353	871.996355	-37.919836	291.049741	971.850174	-51.532438	370.551454	780.412424	-57.425230	361.295854	752.702994	-167.923504	349.793208	659.690623	-29.717753	353.156998	573.242420	-46.655921	315.386491	494.885178	-47.298439	374.314544	572.355419	-81.312997	287.981479	415.662782	-51.065097	222.810887	395.848302	-96.985197	491.561669	324.983823	-98.488032	392.809386	326.807959	-28.148407	138.799845	957.223820	-430.322659	209.626715	906.757190	-424.269134	236.741351	929.124348	-412.277477	246.635519	825.655438	-421.347611	274.388700	714.877957	-394.953594	272.589070	701.279856	-278.573987	13.395426	450.054333	-376.354654	-61.487411	466.419686	-326.778244	72.151577	320.924750	-396.624417	208.461515	629.216201	-414.425624	163.165572	559.274367	-389.905716	86.524877	513.804692	-387.432934	181.799182	547.268240	-356.784574	146.548299	276.233542	-340.032360	-202.942533	865.685777	-209.780618	-50.407155	80.560654	-411.097958	-50.301194	80.004097	-13.546947	
251	1.2550	476.194539	1340.352187	-54.651891	495.553453	1342.709182	-372.358270	450.579902	1438.282916	-213.263397	499.102139	1289.280589	-210.151767	513.994354	1082.493040	44.799005	710.826795	934.736986	-38.065915	528.597967	1086.774320	-475.499818	716.317785	922.541385	-413.937523	-28.756972	1171.582750	-217.949422	138.677574	1125.471076	-385.523090	137.983425	1117.739403	-53.862585	144.006063	1061.875326	-357.691883	150.121603	1063.767132	-88.887083	7.732972	1204.267115	-184.467925	6.154406	1204.946469	-245.043914	101.661743	1073.114508	-22.888290	88.862656	1067.230671	-421.221047	192.083527	988.473683	-24.697887	270.908066	944.393910	-33.084159	316.410720	870.195700	-38.721283	291.890888	970.304171	-52.108145	369.819517	778.076853	-58.070778	360.292820	750.512981	-168.386754	349.328774	657.547273	-30.014380	352.805482	571.141506	-46.971030	315.235860	492.668839	-47.611112	373.773840	570.287032	-81.526688	287.780427	413.569148	-51.303584	222.570766	393.927202	-96.797053	491.502692	323.084766	-98.482191	392.685903	324.870807	-28.184431	139.546389	958.496952	-430.553710	210.422945	908.130170	-424.514506	237.493706	930.485972	-412.285352	247.524813	826.970764	-422.052312	275.256272	716.153433	-396.316924	273.899611	702.580469	-279.829519	13.769574	452.021449	-376.580764	-61.038093	468.603780	-326.871981	72.272852	322.718797	-396.708193	209.209480	630.494843	-415.517905	163.709878	560.834387	-390.657554	86.941516	515.700177	-387.952017	182.489907	548.838255	-357.816726	146.611460	277.896956	-340.118172	-202.894002	865.707982	-209.775157	-50.397176	80.574603	-411.122369	-50.370296	80.251430	-13.352122	
252	1.2600	477.373930	1340.497824	-54.950139	496.411763	1342.596939	-372.487402	451.827542	1438.181154	-213.571070	500.235732	1289.250558	-210.328579	514.495774	1082.570616	44.805825	711.027362	934.720055	-38.150134	528.788787	1086.789140	-475.589387	716.413894	922.457980	-414.029343	-27.773357	1172.441395	-217.718042	139.483428	1126.033492	-385.654725	139.168058	1117.876372	-54.256101	144.760425	1062.504446	-357.776824	151.391358	1064.085341	-89.529004	8.752937	1204.772192	-184.432705	7.074470	1205.438561	-245.040983	103.029236	1072.911618	-23.310669	89.606427	1068.035321	-421.306811	193.038556	987.466867	-25.110243	271.561621	942.831266	-33.698222	316.074183	867.960268	-39.715660	292.711708	968.568258	-52.591989	369.144277	775.794136	-58.553559	359.291909	748.155870	-168.739542	348.759936	655.302165	-30.332843	352.396730	568.958025	-47.305095	314.965512	490.348613	-47.849521	373.349662	568.114208	-81.856676	287.570000	411.534829	-51.492438	222.354169	391.918954	-96.631469	491.447594	321.123758	-98.476505	392.591303	322.936392	-28.248592	140.450051	959.783307	-430.814349	211.349873	909.512544	-424.767192	238.272859	931.858268	-412.416489	248.625918	828.507236	-422.700949	276.301196	717.546062	-397.670447	275.220451	703.844846	-281.137423	14.219802	454.084829	-376.812397	-60.485199	470.868904	-327.012781	72.429564	324.554846	-396.763678	210.036458	632.050268	-416.577491	164.392607	562.462252	-391.568607	87.520129	517.517489	-388.537542	183.177155	550.313772	-358.694288	146.677066	279.570894	-340.180692	-202.864697	865.703604	-209.814163	-50.396421	80.573586	-411.118329	-50.357763	80.264969	-13.344765	
253	1.2650	478.559201	1340.731345	-55.262710	497.255073	1342.434695	-372.733458	452.974509	1438.114859	-213.871276	501.344211	1289.199678	-210.489153	515.320548	1082.651347	44.633888	711.314269	934.645469	-38.292973	529.062498	1086.827624	-475.681054	716.521122	922.371861	-414.124271	-26.698070	1172.863004	-217.829302	140.406353	1126.546326	-385.748029	140.464884	1117.807319	-55.012909	145.648725	1063.080089	-357.849214	152.425418	1064.082450	-90.476146	10.001097	1205.241672	-184.269929	8.032360	1205.857968	-245.057537	104.267842	1072.503052	-23.745162	90.328708	1068.700671	-421.408129	194.012120	986.426342	-25.436136	272.232185	941.309799	-33.974938	316.225246	865.950798	-40.056462	293.503890	966.789261	-52.925554	368.343188	773.401017	-59.116655	358.353486	745.702928	-169.031844	348.170353	652.980813	-30.570837	352.018035	566.669160	-47.588927	314.672562	487.945282	-48.122466	372.841382	565.832500	-82.186285	287.416769	409.431307	-51.666456	222.260323	389.843882	-96.570137	491.388597	319.077128	-98.456048	392.507586	320.912813	-28.244061	141.431221	961.082125	-431.094189	212.424934	910.945903	-425.058325	239.372989	933.221952	-412.568772	249.893296	829.871649	-423.186641	277.468284	718.917267	-399.017213	276.432580	704.620352	-282.551733	14.744225	456.193214	-377.089170	-59.811975	473.235435	-327.068860	72.620999	326.412152	-396.824198	210.956076	633.516902	-417.621801	165.137150	564.175310	-392.419887	88.162647	519.434474	-389.143222	184.035652	551.805861	-359.581853	146.752862	281.263160	-340.275231	-202.812077	865.719094	-209.808718	-50.369191	80.605829	-411.129289	-50.265105	79.994650	-13.559900	
